PathFileType	4	(X/Y/Z)	../Python\running\Running06\task.trc
DataRate	CameraRate	NumFrames	NumMarkers	Units	OrigDataRate	OrigDataStartFrame	OrigNumFrames
200.000000	200.000000	6	30	mm	200.000000	182	208
Frame#	Time	C7			RBAK			CLAV			STRN			RASI			LASI			PE01			RTH1			RTH2			RTH3			RD5M			RTOE			LTH2			LTH3			LTB2			LTB3			LHEE			LTOE			LD5M			RHEE			RTB2			LPSI			RPSI			T10			RTB3			RTB1			PE03			PE02			LTH1			LTB1			
		X1	Y1	Z1	X2	Y2	Z2	X3	Y3	Z3	X4	Y4	Z4	X5	Y5	Z5	X6	Y6	Z6	X7	Y7	Z7	X8	Y8	Z8	X9	Y9	Z9	X10	Y10	Z10	X11	Y11	Z11	X12	Y12	Z12	X13	Y13	Z13	X14	Y14	Z14	X15	Y15	Z15	X16	Y16	Z16	X17	Y17	Z17	X18	Y18	Z18	X19	Y19	Z19	X20	Y20	Z20	X21	Y21	Z21	X22	Y22	Z22	X23	Y23	Z23	X24	Y24	Z24	X25	Y25	Z25	X26	Y26	Z26	X27	Y27	Z27	X28	Y28	Z28	X29	Y29	Z29	X30	Y30	Z30	

183	0.91	1211.13720703125	1341.505249023438	96.41862487792974	1215.496826171875	1274.162719726563	233.3822784423829	1319.716064453125	1245.12060546875	62.11805343627933	1361.128173828125	1061.452392578125	79.50318908691409	1304.899658203125	849.7436523437505	259.329071044922	1312.927368164063	864.819946289063	38.75769805908205	1140.153442382813	964.3601074218755	154.1905975341797	1137.908325195313	577.4073486328127	274.4481201171876	1129.3271484375	500.5902099609377	256.2143859863282	1173.165283203125	542.740661621094	264.8995666503907	695.0264892578127	196.8542633056642	179.4683074951172	718.1179199218752	159.6520233154297	138.4687500000001	1333.892333984375	556.6469726562502	3.945528984069826	1385.478149414063	615.167419433594	-11.49098300933838	1401.547485351563	220.9354553222657	17.43796730041505	1436.895263671875	256.4563903808595	16.96798324584962	1394.81005859375	52.66320419311526	72.36722564697268	1576.753662109376	38.5564308166504	87.91522979736331	1546.352905273438	18.60991859436036	35.41571426391603	722.2908935546877	329.4414672851564	91.03581237792972	908.1904907226567	379.8275146484376	209.5316772460939	1121.84130859375	929.6608276367192	110.932472229004	1125.740478515625	939.292358398438	194.9788513183595	1154.227416992188	1064.009887695313	159.2609405517579	891.6712036132817	333.2131958007814	200.1668853759767	964.6878051757817	358.7903137207032	220.0323333740236	1109.296752929688	914.410278320313	120.4317169189454	1103.370849609375	911.3186035156255	170.5963134765626	1335.495361328125	615.4790039062502	-14.53316879272462	1393.422729492188	298.9194335937501	4.929049015045168	
184	0.915	1227.943115234375	1338.51025390625	95.1909103393555	1231.462768554688	1271.498046875	232.2686767578126	1336.688720703125	1241.597290039063	61.922721862793	1377.650390625	1057.289306640625	79.85443878173831	1321.986450195313	847.3637695312505	258.9522094726564	1328.937744140625	861.780883789063	37.68589019775392	1155.337158203125	960.003051757813	154.2800750732422	1159.443115234375	572.5850219726565	275.7435913085939	1152.178344726563	495.5025329589846	258.0725097656251	1195.2666015625	538.475769042969	266.4019775390626	716.070983886719	200.8308105468751	180.6160888671876	739.179870605469	163.0889587402344	140.2103118896485	1350.892700195313	554.2687988281252	3.5131893157959	1402.271484375	613.4431152343752	-10.54297924041748	1409.656372070313	217.9829406738282	18.02626991271973	1446.26611328125	252.3038482666017	17.57664299011231	1397.09375	48.86454010009768	72.57411193847659	1579.427246093751	36.25135421752931	89.22693634033206	1549.085449218751	16.9277744293213	35.12008666992189	743.4260864257815	332.3717041015626	90.85792541503909	930.9236450195317	379.2658081054689	210.6453094482423	1137.602905273438	925.2155151367192	110.9569549560547	1141.282836914063	934.6161499023442	194.8439025878907	1170.488159179688	1060.817749023438	158.9555816650391	913.364624023438	333.052703857422	201.2937316894532	986.7212524414067	356.9254150390626	221.7246856689454	1125.039672851563	909.640747070313	120.5337677001954	1119.234008789063	906.432250976563	170.7276153564454	1352.306274414063	613.315124511719	-14.32276821136475	1404.45654296875	296.0501098632814	4.925804138183596	
185	0.92	1244.7568359375	1335.426513671875	93.98017883300784	1247.2919921875	1268.669677734375	231.1701812744142	1353.69140625	1237.870971679688	61.80218505859378	1394.1787109375	1052.87109375	80.26023864746097	1338.978881835938	844.744750976563	258.4585876464845	1344.793701171875	858.710571289063	36.51485824584962	1170.360473632813	955.5269165039067	154.6176300048829	1181.0771484375	567.679138183594	276.9778747558595	1175.169677734375	490.3048095703127	259.9166564941407	1217.481323242188	534.1096191406252	267.9187927246095	737.9450683593752	204.3739013671876	181.9729156494141	761.0686035156252	166.1557159423829	142.0985412597657	1367.405639648438	551.7962646484377	2.990203142166139	1418.621704101563	611.5354003906252	-9.795601844787601	1417.472290039063	215.3655395507814	18.52268409729005	1455.315063476563	248.394744873047	18.24628448486329	1398.703125	45.4735794067383	72.81636047363284	1581.383789062501	34.80881118774415	90.47657012939456	1551.159912109376	16.00000762939454	34.86049652099611	765.1060791015627	334.9673156738282	90.97113800048831	954.1921997070317	378.3588867187501	211.9658660888673	1153.2568359375	920.7637329101567	111.1508102416993	1156.787719726563	929.6265258789067	194.8940277099611	1186.724487304688	1057.517456054688	158.7042541503907	935.6643066406255	332.5557861328126	202.5158691406251	1009.315307617188	354.772918701172	223.4749298095704	1140.67626953125	904.8233032226567	120.784652709961	1135.037719726563	901.3632202148442	170.9832916259766	1368.713745117188	611.0505981445315	-14.23167324066163	1415.347045898438	293.4346618652345	4.909045219421388	
186	0.925	1261.58203125	1332.284790039063	92.79492187500003	1262.984375	1265.709106445313	230.094451904297	1370.721313476563	1233.968627929688	61.76181411743167	1410.711791992188	1048.23876953125	80.72855377197268	1355.864868164063	841.9094848632817	257.8418884277345	1360.484375	855.6557006835942	35.24881744384767	1185.240478515625	950.9968261718755	155.2232971191407	1202.821166992188	562.7335205078127	278.1482849121095	1198.295532226563	485.0566711425784	261.7301025390626	1239.813110351563	529.6896972656252	269.4234008789064	760.6255493164065	207.4614562988282	183.5438690185547	783.753784179688	168.8324890136719	144.1277770996094	1383.353393554688	549.228698730469	2.431359052658082	1434.468383789063	609.3608398437502	-9.355834007263187	1425.073486328125	213.1600494384767	18.90353012084962	1464.097778320313	244.8109588623048	18.97078323364259	1399.744140625	42.59773254394533	73.10315704345706	1582.698120117188	34.0880470275879	91.60977935791018	1552.633178710938	15.69360160827637	34.66807556152345	787.3493041992192	337.2272033691407	91.40692138671878	978.0029907226567	377.1064453125001	213.4953765869142	1168.801025390625	916.3788452148442	111.5312271118165	1172.269287109375	924.380981445313	195.1581573486329	1202.929321289063	1054.148315429688	158.5008239746094	958.5844116210942	331.7148437500001	203.8320922851564	1032.491821289063	352.3391113281251	225.2693939208986	1156.203735351563	900.0267944335942	121.2122268676758	1150.792236328125	896.1853027343755	171.3923339843751	1384.664916992188	608.6638183593752	-14.27606773376466	1426.141235351563	291.1550903320314	4.892220497131349	
187	0.93	1278.42236328125	1329.117919921875	91.64406585693362	1278.543334960938	1262.654174804688	229.0483703613282	1387.77392578125	1229.923706054688	61.80804443359378	1427.246337890625	1043.438354492188	81.2671813964844	1372.634887695313	838.8869018554692	257.099578857422	1376.003173828125	852.662475585938	33.89542388916017	1200.005737304688	946.4807739257817	156.1072998046876	1224.685424804688	557.7988891601565	279.2564392089845	1221.558715820313	479.8273010253909	263.498260498047	1262.267578125	525.2777099609377	270.8912048339845	784.0963745117192	210.0657043457032	185.3318786621094	807.2136840820317	171.0970306396485	146.2908477783204	1398.68017578125	546.5747680664065	1.888374567031861	1449.776123046875	606.858825683594	-9.300674438476566	1432.522583007813	211.4042816162111	19.15109062194825	1472.656494140625	241.6019897460939	19.73570632934571	1400.32958984375	40.30381774902345	73.42681121826175	1583.471923828126	33.91595840454103	92.58803558349612	1553.584228515626	15.85118579864503	34.55764007568361	810.160522460938	339.1459045410157	92.19368743896487	1002.35791015625	375.5173950195314	215.2303314208986	1184.235961914063	912.1326293945317	112.109603881836	1187.743041992188	918.952514648438	195.6603393554689	1219.095825195313	1050.752685546875	158.3377227783204	982.1329956054692	330.5315246582032	205.241180419922	1056.267456054688	349.6410522460939	227.0925445556642	1171.620971679688	895.320922851563	121.841423034668	1166.51025390625	890.9806518554692	171.9824829101563	1400.125732421875	606.1459960937502	-14.45883941650391	1436.859985351563	289.254364013672	4.883099079132082	
188	0.9350000000000001	1295.280395507813	1325.960693359375	90.536735534668	1293.975708007813	1259.548706054688	228.0380249023439	1404.84326171875	1225.776611328125	61.94812393188479	1443.77685546875	1038.521362304688	81.88337707519534	1389.282592773438	835.7118530273442	256.2329406738282	1391.348510742188	849.7741088867192	32.46577835083009	1214.695068359375	942.047973632813	157.2675781250001	1246.67822265625	552.9306640625002	280.3070373535157	1244.970336914063	474.6922302246096	265.2081298828126	1284.851928710938	520.947204589844	272.301239013672	808.3491210937505	212.1539306640626	187.3378906250001	831.4364624023442	172.9247283935547	148.5796203613282	1413.358764648438	543.8514404296877	1.398753166198731	1464.5400390625	604.004333496094	-9.658571243286136	1439.859985351563	210.0908966064454	19.25602912902833	1481.014282226563	238.7791900634767	20.5198040008545	1400.572021484375	38.61288833618165	73.76629638671878	1583.824340820313	34.11391067504884	93.39035797119143	1554.109497070313	16.31193542480469	34.52761459350587	833.5285034179692	340.7127380371095	93.35443115234378	1027.2529296875	373.6099548339845	217.1612243652345	1199.565673828125	908.092407226563	112.8900604248047	1203.225341796875	913.429321289063	196.4168853759767	1235.2177734375	1047.373901367188	158.2061309814454	1006.311218261719	329.0175781250001	206.7410125732423	1080.652709960938	346.7066345214845	228.9265441894532	1186.929809570313	890.7743530273442	122.6917877197266	1182.207397460938	885.8378906250005	172.7775573730469	1415.084106445313	603.5030517578127	-14.77228546142579	1447.49365234375	287.7284545898439	4.881381034851076	
